<svg width="63" height="63" viewBox="0 0 63 63" fill="none" xmlns="http://www.w3.org/2000/svg">
<path d="M59.85 45.675V17.325C59.85 14.7105 57.7395 12.6 55.125 12.6H10.9936C8.37905 12.6 6.26855 14.7105 6.26855 17.325V45.675C6.26855 48.2895 8.37905 50.4 10.9936 50.4H55.125C57.7395 50.4 59.85 48.2895 59.85 45.675ZM55.7235 16.9785C56.763 18.018 56.196 19.089 55.629 19.6245L42.84 31.3425L55.125 44.1315C55.503 44.5725 55.755 45.2655 55.314 45.738C54.9045 46.242 53.9595 46.2105 53.55 45.8955L39.7845 34.146L33.0435 40.2885L26.334 34.146L12.5686 45.8955C12.1591 46.2105 11.2141 46.242 10.8046 45.738C10.3636 45.2655 10.6156 44.5725 10.9936 44.1315L23.2785 31.3425L10.4896 19.6245C9.92255 19.089 9.35555 18.018 10.3951 16.9785C11.4346 15.939 12.5056 16.443 13.3876 17.199L33.0435 33.075L52.731 17.199C53.613 16.443 54.684 15.939 55.7235 16.9785Z" fill="white"/>
</svg>
