<svg width="56" height="56" viewBox="0 0 56 56" fill="none" xmlns="http://www.w3.org/2000/svg">
<path d="M30.8438 5.25C33.2973 11.0408 22.0465 14.588 21 19.4145C20.0428 23.8438 27.6657 29.0395 27.6727 29.0395C26.509 27.2073 25.662 25.662 24.5 22.8043C22.5312 17.9778 36.4963 13.6238 30.8438 5.25ZM38.2812 13.2895C38.2812 13.2895 28.4445 13.9108 27.9457 20.3438C27.7183 23.2085 30.5427 24.7118 30.625 26.7978C30.695 28.4988 28.9293 29.9128 28.9293 29.9128C28.9293 29.9128 32.095 29.3405 33.0855 26.7418C34.1793 23.8578 30.954 21.889 31.2812 19.5773C31.5963 17.3705 38.2812 13.2895 38.2812 13.2895ZM40.6875 28.1085C39.655 28.0613 38.493 28.4445 37.4605 29.2023C39.4975 28.7525 41.2352 30.03 41.2352 31.5C41.2352 34.7953 36.5312 37.898 36.5312 37.898C36.5312 37.898 43.8042 37.0843 43.8042 31.6645C43.8042 29.428 42.4042 28.1908 40.6875 28.1085ZM21.3832 28.1645C18.8457 28.252 13.7812 28.6703 13.7812 30.625C13.7812 33.3463 25.5797 33.558 34.0165 31.8833C34.0165 31.8833 36.3125 30.2838 36.9145 29.6958C31.3845 30.8438 18.7582 31.0223 18.7582 30.023C18.7582 29.1078 22.8043 28.1645 22.8043 28.1645C22.8043 28.1645 22.2302 28.1365 21.3832 28.1645ZM20.6168 33.1958C19.229 33.1958 17.171 34.2755 17.171 35.3273C17.171 37.4465 27.6185 39.074 35.329 35.9835L32.648 34.3438C27.419 36.0535 17.759 35.4848 20.6168 33.1958ZM21.9293 37.9523C20.0358 37.9523 18.8125 39.1493 18.8125 40.0313C18.8125 42.7438 30.1263 43.0115 34.6168 40.25L31.773 38.3898C28.4235 39.8335 19.9955 40.0453 21.9293 37.9523ZM15.5855 40.4145C12.4968 40.3533 10.5 41.7533 10.5 42.9275C10.5 49.182 42.1645 48.8828 42.1645 42.49C42.1645 41.4313 40.9132 40.9255 40.4688 40.6858C43.0535 46.7968 14.602 46.319 14.602 42.7088C14.602 41.8898 16.7073 41.069 18.648 41.4523L17.0082 40.5213C16.537 40.4529 16.0617 40.4184 15.5855 40.4145ZM45.5 44.625C40.6875 49.28 28.5075 50.9478 16.2418 48.0708C28.5058 53.1983 45.4388 50.3458 45.5 44.625Z" fill="#FBFBFB"/>
</svg>
