<svg width="41" height="41" viewBox="0 0 41 41" fill="none" xmlns="http://www.w3.org/2000/svg">
<path d="M35.9583 0.625C37.1297 0.625 38.2531 1.09033 39.0814 1.91861C39.9097 2.7469 40.375 3.87029 40.375 5.04167V35.9583C40.375 37.1297 39.9097 38.2531 39.0814 39.0814C38.2531 39.9097 37.1297 40.375 35.9583 40.375H5.04167C3.87029 40.375 2.7469 39.9097 1.91861 39.0814C1.09033 38.2531 0.625 37.1297 0.625 35.9583V5.04167C0.625 3.87029 1.09033 2.7469 1.91861 1.91861C2.7469 1.09033 3.87029 0.625 5.04167 0.625H35.9583ZM34.8542 34.8542V23.15C34.8542 21.2407 34.0957 19.4095 32.7456 18.0594C31.3955 16.7093 29.5643 15.9508 27.655 15.9508C25.7779 15.9508 23.5917 17.0992 22.5317 18.8217V16.3704H16.3704V34.8542H22.5317V23.9671C22.5317 22.2667 23.9008 20.8754 25.6012 20.8754C26.4212 20.8754 27.2076 21.2011 27.7874 21.7809C28.3672 22.3607 28.6929 23.1471 28.6929 23.9671V34.8542H34.8542ZM9.19333 12.9033C10.1773 12.9033 11.1209 12.5125 11.8167 11.8167C12.5125 11.1209 12.9033 10.1773 12.9033 9.19333C12.9033 7.13958 11.2471 5.46125 9.19333 5.46125C8.20352 5.46125 7.25425 5.85445 6.55435 6.55435C5.85445 7.25425 5.46125 8.20352 5.46125 9.19333C5.46125 11.2471 7.13958 12.9033 9.19333 12.9033ZM12.2629 34.8542V16.3704H6.14583V34.8542H12.2629Z" fill="white"/>
</svg>
