<svg width="41" height="41" viewBox="0 0 41 41" fill="none" xmlns="http://www.w3.org/2000/svg">
<path fill-rule="evenodd" clip-rule="evenodd" d="M6.94097 2.13538H13.3489C13.6095 2.13538 13.864 2.21485 14.0782 2.36319C14.2925 2.51154 14.4564 2.72169 14.5482 2.96563L17.0355 9.57688C17.1175 9.79551 17.1382 10.0324 17.0953 10.2619L15.8482 16.9449C17.3806 20.5461 19.9106 22.9668 24.1046 25.1381L30.7073 23.8568C30.9419 23.8116 31.1845 23.8329 31.4077 23.9183L38.0395 26.4467C38.2819 26.539 38.4906 26.7028 38.6379 26.9163C38.7853 27.1299 38.8643 27.3831 38.8646 27.6425V33.7652C38.8646 36.5429 36.4183 38.7962 33.5551 38.1727C28.3396 37.0383 18.6755 34.153 11.9071 27.3846C5.42226 20.9014 3.24926 11.9463 2.5198 7.10663C2.10126 4.34254 4.31697 2.13538 6.94097 2.13538Z" fill="white"/>
</svg>
