<svg width="50" height="50" viewBox="0 0 50 50" fill="none" xmlns="http://www.w3.org/2000/svg">
<path d="M25 15.625H15.625M15.625 15.625H12.4542C10.7729 15.625 9.0521 16.0166 8.01669 17.3416C6.91252 18.7562 5.72919 21.1645 5.72919 25C5.72919 28.8333 6.91252 31.2437 8.01669 32.6583C9.0521 33.9833 10.7729 34.375 12.4542 34.375H15.625M15.625 15.625V12.4541C15.625 10.7729 16.0167 9.05204 17.3417 8.01663C18.7563 6.91246 21.1646 5.72913 25 5.72913C28.8334 5.72913 31.2438 6.91246 32.6584 8.01663C33.9834 9.05204 34.375 10.7729 34.375 12.4541V15.625M25 34.375H34.375M34.375 34.375H37.5438C39.225 34.375 40.9479 33.9833 41.9813 32.6583C43.0875 31.2437 44.2709 28.8354 44.2709 25C44.2709 21.1666 43.0875 18.7562 41.9834 17.3416C40.9479 16.0166 39.225 15.625 37.5459 15.625H34.375M34.375 34.375V37.5437C34.375 39.225 33.9834 40.9479 32.6584 41.9812C31.2438 43.0875 28.8354 44.2708 25 44.2708C21.1667 44.2708 18.7563 43.0875 17.3417 41.9833C16.0167 40.9479 15.625 39.225 15.625 37.5458V34.375M34.375 15.625V20.8333C34.375 21.9384 33.936 22.9982 33.1546 23.7796C32.3732 24.561 31.3134 25 30.2084 25H19.7917C18.6866 25 17.6268 25.4389 16.8454 26.2204C16.064 27.0018 15.625 28.0616 15.625 29.1666V34.375" stroke="white" stroke-width="1.5" stroke-linecap="round" stroke-linejoin="round"/>
<path d="M31.25 38.5416C31.25 38.956 31.0854 39.3534 30.7924 39.6464C30.4993 39.9395 30.1019 40.1041 29.6875 40.1041C29.2731 40.1041 28.8757 39.9395 28.5826 39.6464C28.2896 39.3534 28.125 38.956 28.125 38.5416C28.125 38.1272 28.2896 37.7297 28.5826 37.4367C28.8757 37.1437 29.2731 36.9791 29.6875 36.9791C30.1019 36.9791 30.4993 37.1437 30.7924 37.4367C31.0854 37.7297 31.25 38.1272 31.25 38.5416ZM18.75 11.4583C18.75 11.0439 18.9146 10.6464 19.2076 10.3534C19.5007 10.0604 19.8981 9.89575 20.3125 9.89575C20.7269 9.89575 21.1243 10.0604 21.4174 10.3534C21.7104 10.6464 21.875 11.0439 21.875 11.4583C21.875 11.8727 21.7104 12.2701 21.4174 12.5631C21.1243 12.8561 20.7269 13.0208 20.3125 13.0208C19.8981 13.0208 19.5007 12.8561 19.2076 12.5631C18.9146 12.2701 18.75 11.8727 18.75 11.4583Z" fill="white"/>
</svg>
