<svg width="45" height="45" viewBox="0 0 45 45" fill="none" xmlns="http://www.w3.org/2000/svg">
<path d="M22.5 26.5078C24.7135 26.5078 26.5078 24.7135 26.5078 22.5C26.5078 20.2865 24.7135 18.4922 22.5 18.4922C20.2865 18.4922 18.4922 20.2865 18.4922 22.5C18.4922 24.7135 20.2865 26.5078 22.5 26.5078Z" fill="white"/>
<path d="M37.7227 15.8906C36.9492 15.6094 36.1406 15.3281 35.2969 15.082C35.5078 14.2383 35.6836 13.3945 35.8242 12.5859C36.5625 7.94531 35.7539 4.67578 33.5039 3.41016C32.8359 3.02344 32.0977 2.84766 31.2539 2.84766C28.793 2.84766 25.6641 4.67578 22.5 7.73438C19.3359 4.67578 16.207 2.84766 13.7461 2.84766C12.9023 2.84766 12.1641 3.02344 11.4961 3.41016C9.24609 4.71094 8.4375 7.98047 9.17578 12.5859C9.31641 13.3945 9.49219 14.2383 9.70312 15.082C8.85938 15.3281 8.05078 15.5742 7.27734 15.8906C2.88281 17.5781 0.492188 19.8984 0.492188 22.5C0.492188 25.1016 2.91797 27.4219 7.27734 29.1094C8.05078 29.3906 8.85938 29.6719 9.70312 29.918C9.49219 30.7617 9.31641 31.6055 9.17578 32.4141C8.4375 37.0547 9.24609 40.3242 11.4961 41.5898C12.1641 41.9766 12.9023 42.1523 13.7461 42.1523C16.2422 42.1523 19.3711 40.3242 22.5 37.2656C25.6641 40.3242 28.793 42.1523 31.2539 42.1523C32.0977 42.1523 32.8359 41.9766 33.5039 41.5898C35.7539 40.2891 36.5625 37.0195 35.8242 32.4141C35.6836 31.6055 35.5078 30.7617 35.2969 29.918C36.1406 29.6719 36.9492 29.4258 37.7227 29.1094C42.1172 27.4219 44.5078 25.1016 44.5078 22.5C44.5078 19.8984 42.1172 17.5781 37.7227 15.8906ZM32.5195 5.16797C33.9609 6.01172 34.4531 8.61328 33.8555 12.3047C33.75 13.043 33.5742 13.8164 33.3633 14.625C31.5352 14.2031 29.6016 13.9219 27.5625 13.7461C26.3672 12.0586 25.1367 10.5469 23.9062 9.17578C26.5078 6.60938 29.1445 4.85156 31.2891 4.85156C31.7461 4.85156 32.168 4.95703 32.5195 5.16797ZM28.582 26.0156C27.9492 27.1406 27.2109 28.2656 26.4375 29.3906C25.1367 29.4961 23.8359 29.5312 22.5 29.5312C21.1289 29.5312 19.8281 29.4961 18.5625 29.3906C17.7891 28.2656 17.0859 27.1406 16.4531 26.0156C15.7852 24.8555 15.1523 23.6602 14.5898 22.5C15.1523 21.3398 15.7852 20.1445 16.4531 18.9844C17.0859 17.8594 17.8242 16.7344 18.5977 15.6094C19.8984 15.5039 21.1992 15.4688 22.5352 15.4688C23.9062 15.4688 25.207 15.5039 26.4727 15.6094C27.2461 16.7344 27.9492 17.8594 28.582 18.9844C29.25 20.1445 29.8828 21.3398 30.4453 22.5C29.8477 23.6602 29.25 24.8203 28.582 26.0156ZM31.5 24.8555C32.0273 26.0859 32.4492 27.2812 32.8359 28.4766C31.6406 28.7578 30.375 28.9688 29.0391 29.1445C29.4609 28.4766 29.918 27.7734 30.3047 27.0352C30.7266 26.2969 31.1133 25.5586 31.5 24.8555ZM22.5 34.3828C21.6562 33.4688 20.8477 32.4844 20.0742 31.4648C20.8828 31.5 21.6914 31.5352 22.5 31.5352C23.3086 31.5352 24.1172 31.5 24.9258 31.4648C24.1523 32.4844 23.3438 33.4688 22.5 34.3828ZM15.9609 29.1094C14.625 28.9336 13.3594 28.7227 12.1641 28.4414C12.5508 27.2813 12.9727 26.0508 13.5 24.8203C13.8867 25.5234 14.2734 26.2617 14.6953 26.9648C15.1172 27.7383 15.5391 28.4063 15.9609 29.1094ZM13.5 20.1445C12.9727 18.9141 12.5508 17.7188 12.1641 16.5234C13.3594 16.2422 14.625 16.0312 15.9609 15.8555C15.5391 16.5234 15.082 17.2266 14.6953 17.9648C14.2734 18.7031 13.8867 19.4414 13.5 20.1445ZM22.5 10.6172C23.3438 11.5312 24.1523 12.5156 24.9258 13.5352C24.1172 13.5 23.3086 13.4648 22.5 13.4648C21.6914 13.4648 20.8828 13.5 20.0742 13.5352C20.8477 12.5156 21.6562 11.5312 22.5 10.6172ZM30.3047 18L29.0391 15.8906C30.375 16.0664 31.6406 16.2773 32.8359 16.5586C32.4492 17.7188 32.0273 18.9492 31.5 20.1797C31.1133 19.4414 30.7266 18.7031 30.3047 18ZM11.1445 12.3047C10.5469 8.61328 11.0391 6.01172 12.4805 5.16797C12.832 4.95703 13.2539 4.85156 13.7109 4.85156C15.8203 4.85156 18.457 6.57422 21.0938 9.17578C19.8633 10.5117 18.6328 12.0586 17.4375 13.7461C15.3984 13.9219 13.4648 14.2383 11.6367 14.625C11.4258 13.8164 11.2852 13.043 11.1445 12.3047ZM2.46094 22.5C2.46094 20.8477 4.46484 19.0898 7.98047 17.7891C8.68359 17.5078 9.45703 17.2617 10.2305 17.0508C10.793 18.8086 11.4961 20.6719 12.3398 22.5352C11.4961 24.3984 10.7578 26.2266 10.2305 27.9844C5.37891 26.5781 2.46094 24.4688 2.46094 22.5ZM12.4805 39.832C11.0391 38.9883 10.5469 36.3867 11.1445 32.6953C11.25 31.957 11.4258 31.1836 11.6367 30.375C13.4648 30.7969 15.3984 31.0781 17.4375 31.2539C18.6328 32.9414 19.8633 34.4531 21.0938 35.8242C18.4922 38.3906 15.8555 40.1484 13.7109 40.1484C13.2539 40.1484 12.832 40.043 12.4805 39.832ZM33.8555 32.6953C34.4531 36.3867 33.9609 38.9883 32.5195 39.832C32.168 40.043 31.7461 40.1484 31.2891 40.1484C29.1797 40.1484 26.543 38.4258 23.9062 35.8242C25.1367 34.4883 26.3672 32.9414 27.5625 31.2539C29.6016 31.0781 31.5352 30.7617 33.3633 30.375C33.5742 31.1836 33.7148 31.957 33.8555 32.6953ZM37.0195 27.2109C36.3164 27.4922 35.543 27.7383 34.7695 27.9492C34.207 26.1914 33.5039 24.3281 32.6602 22.4648C33.5039 20.6016 34.2422 18.7734 34.7695 17.0156C39.6211 18.4219 42.5391 20.5312 42.5391 22.5C42.5391 24.1523 40.5 25.9102 37.0195 27.2109Z" fill="white"/>
</svg>
