<svg width="42" height="41" viewBox="0 0 42 41" fill="none" xmlns="http://www.w3.org/2000/svg">
<path d="M38.3339 2.41905C37.7639 3.78415 37.0271 5.07348 36.1404 6.25767C34.2408 4.29002 31.9656 2.72356 29.4497 1.65103C26.9337 0.578497 24.2281 0.0217111 21.4931 0.0136389C18.7581 0.00556666 16.0493 0.546372 13.527 1.60403C11.0048 2.66169 8.72039 4.2147 6.80915 6.1711C4.89791 8.1275 3.39866 10.4475 2.40017 12.9938C1.40169 15.54 0.924279 18.2607 0.996207 20.9948C1.06813 23.7289 1.68794 26.4207 2.81892 28.911C3.9499 31.4012 5.56906 33.6392 7.58053 35.4924L8.33903 36.1672C11.2205 38.5978 14.7185 40.1833 18.4457 40.7483C22.1728 41.3132 25.9836 40.8355 29.4559 39.368C32.9283 37.9005 35.9267 35.5005 38.119 32.4338C40.3113 29.3672 41.612 25.7535 41.877 21.9931C42.4681 16.8459 40.9067 10.2654 38.3339 2.41905ZM10.5325 35.6615C10.3157 35.9277 10.0248 36.1237 9.69665 36.2248C9.36849 36.3258 9.01774 36.3273 8.68871 36.2292C8.35968 36.131 8.06711 35.9375 7.84796 35.6732C7.6288 35.4089 7.49289 35.0855 7.45738 34.744C7.42187 34.4025 7.48835 34.0581 7.64844 33.7543C7.80852 33.4505 8.05503 33.201 8.35682 33.0373C8.65862 32.8735 9.00218 32.8028 9.34411 32.8342C9.68604 32.8655 10.011 32.9975 10.278 33.2135C10.6278 33.5096 10.8496 33.9296 10.897 34.3855C10.9444 34.8413 10.8138 35.2996 10.5325 35.6615ZM38.2058 29.5422C33.185 36.2492 22.3867 33.972 15.5089 34.3085C15.5089 34.3085 14.2857 34.3939 13.0626 34.5613C13.0626 34.5613 13.5272 34.3512 14.1183 34.1394C18.97 32.4532 21.2472 32.115 24.1992 30.5963C29.7257 27.7707 35.2521 21.5695 36.3489 15.1564C34.2391 21.3166 27.8277 26.6312 22.0057 28.782C17.9979 30.2597 10.7854 31.693 10.7854 31.693L10.4898 31.5239C5.59544 29.1203 5.42803 18.4893 14.3712 15.0727C18.2935 13.5523 22.0074 14.3979 26.2663 13.3848C30.7814 12.3308 36.0123 8.95513 38.1221 4.52542C40.483 11.656 43.3513 22.7072 38.2058 29.5422Z" fill="white"/>
</svg>
