<svg width="50" height="50" viewBox="0 0 50 50" fill="none" xmlns="http://www.w3.org/2000/svg">
<path d="M38.9167 25.6667C38.0463 24.7962 37.0127 24.1061 35.8751 23.636C34.7375 23.1658 33.5183 22.9247 32.2873 22.9267C31.0564 22.9286 29.8379 23.1735 28.7018 23.6472C27.5657 24.121 26.5343 24.8143 25.6666 25.6875C24.7949 26.5565 24.1031 27.589 23.6312 28.7259C23.1592 29.8627 22.9163 31.0816 22.9163 32.3125C22.9163 33.5434 23.1592 34.7623 23.6312 35.8991C24.1031 37.036 24.7949 38.0685 25.6666 38.9375C27.1691 40.4334 29.1333 41.3772 31.2401 41.6155C33.3468 41.8538 35.4722 41.3726 37.2708 40.25L43.75 46.6458L46.6458 43.75L40.2083 37.2708C42.5625 33.5833 42.0208 28.75 38.9167 25.6667ZM35.9792 35.9792C33.9375 38.0208 30.6458 38 28.6041 35.9792C26.5833 33.9375 26.5833 30.6458 28.625 28.6042C30.6458 26.5833 33.9375 26.5833 35.9792 28.6042C38 30.6458 38 33.9375 35.9792 35.9792ZM22.7083 41.875C21.3474 40.5024 20.296 38.8544 19.625 37.0417C13.0625 35.9375 8.33331 32.8333 8.33331 29.1667V35.4167C8.33331 40.0208 15.7916 43.75 25 43.75C24.1666 43.2083 23.3958 42.5833 22.7083 41.875ZM8.33331 18.75V25C8.33331 28.5 12.6458 31.5 18.75 32.7083V32.2917C18.75 30.3542 19.1666 28.4375 19.9583 26.6875C13.2083 25.625 8.33331 22.4792 8.33331 18.75ZM25 6.25C15.7916 6.25 8.33331 9.97917 8.33331 14.5833C8.33331 18.75 14.5833 22.25 22.6041 22.9167H22.7083C25.2083 20.2917 28.6667 18.75 32.2917 18.75C34.1875 18.75 36.0625 19.1458 37.7917 19.9167C38.842 19.4365 39.7506 18.6932 40.4295 17.7588C41.1084 16.8245 41.5345 15.7307 41.6667 14.5833C41.6667 9.97917 34.2083 6.25 25 6.25Z" fill="white"/>
</svg>
