<svg width="54" height="54" viewBox="0 0 54 54" fill="none" xmlns="http://www.w3.org/2000/svg">
<path d="M27 13.5C20.9925 13.5 17.2575 16.4925 15.75 22.5C18 19.5075 20.6325 18.3825 23.625 19.125C25.335 19.5525 26.5725 20.79 27.9225 22.1625C30.1275 24.4125 32.625 27 38.25 27C44.2575 27 47.9925 24.0075 49.5 18C47.25 20.9925 44.6175 22.1175 41.625 21.375C39.915 20.9475 38.7 19.71 37.3275 18.3375C35.1225 16.0875 32.625 13.5 27 13.5ZM15.75 27C9.7425 27 6.0075 29.9925 4.5 36C6.75 33.0075 9.3825 31.8825 12.375 32.625C14.085 33.0525 15.3 34.29 16.6725 35.6625C18.8775 37.9125 21.375 40.5 27 40.5C33.0075 40.5 36.7425 37.5075 38.25 31.5C36 34.4925 33.3675 35.6175 30.375 34.875C28.665 34.4475 27.45 33.21 26.0775 31.8375C23.8725 29.5875 21.375 27 15.75 27Z" fill="white"/>
</svg>
